<svg width="180" height="180" viewBox="0 0 180 180" fill="none" xmlns="http://www.w3.org/2000/svg">
<g clip-path="url(#clip0_1_603)">
<path d="M177.939 2.06128H2.06128V177.939H177.939V2.06128Z" stroke="black" stroke-width="6" stroke-miterlimit="10"/>
<path d="M60.678 2.0613C52.9274 1.97738 45.2371 3.43147 38.0523 6.33943C30.8674 9.24738 24.3306 13.5514 18.8202 19.0025C13.3097 24.4536 8.93517 30.9434 5.9496 38.0964C2.96403 45.2494 1.42676 52.9234 1.42676 60.6745C1.42676 68.4255 2.96403 76.0996 5.9496 83.2526C8.93517 90.4056 13.3097 96.8954 18.8202 102.346C24.3306 107.798 30.8674 112.102 38.0523 115.01C45.2371 117.918 52.9274 119.372 60.678 119.288V2.0613Z" stroke="black" stroke-width="6" stroke-miterlimit="10"/>
<path d="M119.288 60.6779C127.038 60.594 134.729 62.0481 141.914 64.956C149.098 67.864 155.635 72.168 161.146 77.6191C166.656 83.0702 171.031 89.56 174.016 96.713C177.002 103.866 178.539 111.54 178.539 119.291C178.539 127.042 177.002 134.716 174.016 141.869C171.031 149.022 166.656 155.512 161.146 160.963C155.635 166.414 149.098 170.718 141.914 173.626C134.729 176.534 127.038 177.988 119.288 177.904V60.6779Z" stroke="black" stroke-width="6" stroke-miterlimit="10"/>
<path d="M177.904 60.6779C177.988 52.9273 176.534 45.237 173.626 38.0521C170.718 30.8672 166.414 24.3304 160.963 18.82C155.512 13.3096 149.022 8.93505 141.869 5.94948C134.716 2.96391 127.042 1.42664 119.291 1.42664C111.54 1.42664 103.866 2.96391 96.7131 5.94948C89.5601 8.93505 83.0703 13.3096 77.6192 18.82C72.1681 24.3304 67.8641 30.8672 64.9561 38.0521C62.0482 45.237 60.5941 52.9273 60.678 60.6779H177.904Z" stroke="black" stroke-width="6" stroke-miterlimit="10"/>
<path d="M2.0613 119.288C1.97738 127.038 3.43147 134.728 6.33943 141.913C9.24738 149.098 13.5514 155.635 19.0025 161.145C24.4536 166.656 30.9434 171.03 38.0964 174.016C45.2494 177.002 52.9234 178.539 60.6745 178.539C68.4255 178.539 76.0996 177.002 83.2526 174.016C90.4056 171.03 96.8954 166.656 102.346 161.145C107.798 155.635 112.102 149.098 115.01 141.913C117.918 134.728 119.372 127.038 119.288 119.288H2.0613Z" stroke="black" stroke-width="6" stroke-miterlimit="10"/>
</g>
<defs>
<clipPath id="clip0_1_603">
<rect width="180" height="180" fill="white"/>
</clipPath>
</defs>
</svg>
